<svg xmlns="http://www.w3.org/2000/svg" viewBox="1708 -555 96.357 96.354">
  <defs>
    <style>
      .cls-1 {
        fill: #45d84b;
      }

      .cls-2 {
        fill: #fff;
      }
    </style>
  </defs>
  <g id="group-5" transform="translate(259 -384)">
    <g id="home-buyer-sift-icon" transform="translate(1450.02 -170.544)">
      <path id="path" class="cls-1" d="M96.357,75.8,75.977,96.354,20.53,96.1,0,75.8.15,20.306,20.288.1,75.977,0l20.38,20.306Z" transform="translate(-1.02 -0.456)"/>
    </g>
    <g id="group-4" transform="translate(66.191 -122.995)">
      <path id="path-1" class="cls-2" d="M27.34,27.721h0L0,0H54.68L27.34,27.72Z" transform="translate(1458.489 27.716) rotate(180)"/>
      <path id="path-1-2" data-name="path-1" class="cls-2" d="M27.34,27.721h0L0,0H54.68L27.34,27.72Z" transform="translate(1403.809 -27.005)"/>
    </g>
    <g id="group-4-2" data-name="group-4" transform="translate(66.191 -122.995)">
      <path id="path-1-3" data-name="path-1" class="cls-2" d="M27.34,27.721h0L0,0H54.68L27.34,27.72Z" transform="translate(1458.489 27.716) rotate(180)"/>
      <path id="path-1-4" data-name="path-1" class="cls-2" d="M27.34,27.721h0L0,0H54.68L27.34,27.72Z" transform="translate(1403.809 -27.005)"/>
    </g>
  </g>
</svg>
