<svg xmlns="http://www.w3.org/2000/svg" xmlns:xlink="http://www.w3.org/1999/xlink" viewBox="2144 -791 200 200">
  <defs>
    <style>
      .cls-1 {
        clip-path: url(#clip-TL_DR-3);
      }

      .cls-2 {
        fill: #222;
      }

      .cls-3 {
        fill: #fff;
      }
    </style>
    <clipPath id="clip-TL_DR-3">
      <rect x="2144" y="-791" width="200" height="200"/>
    </clipPath>
  </defs>
  <g id="TL_DR-3" data-name="TL;DR-3" class="cls-1">
    <rect class="cls-3" x="2144" y="-791" width="200" height="200"/>
    <g id="group-7" transform="translate(271 -568)">
      <g id="group-4" transform="translate(487.151 -123.215)">
        <path id="path-1" class="cls-2" d="M27.34,27.721h0L0,0H54.68L27.34,27.72Z" transform="translate(1458.489 27.716) rotate(180)"/>
        <path id="path-1-2" data-name="path-1" class="cls-2" d="M27.34,27.721h0L0,0H54.68L27.34,27.72Z" transform="translate(1403.809 -27.005)"/>
      </g>
      <g id="group-4-2" data-name="group-4" transform="translate(542.151 -123.215)">
        <path id="path-1-3" data-name="path-1" class="cls-2" d="M27.34,27.721h0L0,0H54.68L27.34,27.72Z" transform="translate(1458.489 27.716) rotate(180)"/>
        <path id="path-1-4" data-name="path-1" class="cls-2" d="M27.34,27.721h0L0,0H54.68L27.34,27.72Z" transform="translate(1403.809 -27.005)"/>
      </g>
      <g id="group-4-3" data-name="group-4" transform="translate(597.151 -123.215)">
        <path id="path-1-5" data-name="path-1" class="cls-2" d="M27.34,27.721h0L0,0H54.68L27.34,27.72Z" transform="translate(1458.489 27.716) rotate(180)"/>
        <path id="path-1-6" data-name="path-1" class="cls-2" d="M27.34,27.721h0L0,0H54.68L27.34,27.72Z" transform="translate(1403.809 -27.005)"/>
      </g>
    </g>
  </g>
</svg>
